<svg width="512" height="512" xmlns="http://www.w3.org/2000/svg">

 <g>
  <title>background</title>
  <rect fill="none" id="canvas_background" height="514" width="514" y="-1" x="-1"/>
 </g>
 <g>
  <title>Layer 1</title>
  <g id="svg_1">
   <g id="svg_2">
    <path fill="#ff56ff" id="svg_3" d="m187.07,308.699c-0.13,-0.64 -0.32,-1.27 -0.57,-1.87c-0.25,-0.61 -0.56,-1.19 -0.92,-1.73c-0.37,-0.55 -0.79,-1.06 -1.25,-1.52c-2.32,-2.32 -5.77,-3.39 -9.02,-2.73c-0.64,0.13 -1.27,0.32 -1.87,0.57c-0.61,0.25 -1.19,0.56 -1.73,0.92c-0.55,0.36 -1.06,0.78 -1.52,1.24c-0.46,0.46 -0.88,0.97 -1.24,1.52c-0.36,0.54 -0.67,1.12 -0.92,1.73c-0.25,0.6 -0.44,1.23 -0.57,1.87s-0.2,1.3 -0.2,1.95c0,0.65 0.07,1.31 0.2,1.96c0.13,0.63 0.32,1.26 0.57,1.87c0.25,0.6 0.56,1.18 0.92,1.72c0.36,0.55 0.78,1.06 1.24,1.52c0.46,0.46 0.97,0.88 1.52,1.25c0.54,0.36 1.12,0.67 1.73,0.92c0.6,0.25 1.23,0.44 1.87,0.57s1.3,0.19 1.95,0.19c2.63,0 5.21,-1.07 7.07,-2.93c0.46,-0.46 0.88,-0.97 1.25,-1.52c0.36,-0.54 0.67,-1.12 0.92,-1.72c0.25,-0.61 0.44,-1.24 0.57,-1.87c0.13,-0.65 0.19,-1.31 0.19,-1.96s-0.06,-1.31 -0.19,-1.95z"/>
   </g>
  </g>
  <g fill="white" id="svg_4">
   <g id="svg_5">
    <path fill="#ff56ff" id="svg_6" d="m502,481.385l-20.714,0l0,-106.945l0,-43.854c0,-16.506 -13.428,-29.934 -29.934,-29.934l-17.077,0l0,-60.502l0,-38.138c0,-16.505 -13.428,-29.934 -29.934,-29.934l-30.698,0l0,-29.034c6.86,-1.732 13.354,-5.269 18.71,-10.625c12.311,-12.31 15.405,-31.069 7.699,-46.682l-27.442,-55.595c-1.685,-3.413 -5.161,-5.574 -8.967,-5.574c-3.806,0 -7.282,2.161 -8.967,5.574l-27.442,55.596c-7.706,15.611 -4.612,34.371 7.699,46.682c5.356,5.356 11.85,8.893 18.71,10.625l0,29.034l-87.643,0l0,-42.988c6.86,-1.732 13.354,-5.269 18.71,-10.625c12.311,-12.31 15.404,-31.069 7.699,-46.682l-27.442,-55.596c-1.685,-3.413 -5.161,-5.574 -8.967,-5.574c-3.806,0 -7.282,2.161 -8.967,5.574l-27.442,55.597c-7.705,15.612 -4.611,34.371 7.699,46.681c5.356,5.356 11.85,8.893 18.71,10.625l0,42.988l-87.643,0l0,-29.003c7.02,-1.77 13.458,-5.404 18.71,-10.656c12.311,-12.31 15.405,-31.07 7.699,-46.682l-27.442,-55.596c-1.685,-3.413 -5.161,-5.574 -8.967,-5.574c-3.806,0 -7.282,2.161 -8.967,5.574l-27.442,55.597c-7.705,15.611 -4.611,34.371 7.699,46.682c5.252,5.252 11.69,8.886 18.71,10.656l0,29.003l-30.698,0c-16.506,0 -29.934,13.428 -29.934,29.934l0,38.14l0,60.5l-17.077,0c-16.506,0 -29.934,13.428 -29.934,29.934l0,43.854l0,106.945l-20.714,0c-5.523,0 -10,4.477 -10,10s4.477,10 10,10l30.714,0l430.572,0l30.714,0c5.523,0 10,-4.477 10,-10s-4.477,-10.002 -10,-10.002zm-152.925,-363.109c-6.247,-6.246 -7.816,-15.765 -3.906,-23.687l18.475,-37.429l18.475,37.429c3.91,7.922 2.34,17.441 -3.906,23.687c-1.387,1.387 -2.932,2.518 -4.568,3.426c-6.201,3.442 -13.799,3.442 -20,0c-1.638,-0.907 -3.183,-2.038 -4.57,-3.426zm-107.643,-13.953c-6.246,-6.246 -7.816,-15.765 -3.906,-23.687l18.474,-37.428l18.475,37.429c3.91,7.922 2.34,17.441 -3.906,23.687c-1.387,1.387 -2.932,2.518 -4.568,3.426c-6.2,3.442 -13.799,3.442 -20,0c-1.637,-0.909 -3.182,-2.039 -4.569,-3.427zm-107.643,13.953c-6.247,-6.246 -7.816,-15.765 -3.906,-23.687l18.475,-37.429l18.475,37.429c3.91,7.921 2.34,17.44 -3.906,23.687c-1.387,1.387 -2.932,2.518 -4.568,3.426c-6.2,3.442 -13.799,3.442 -20,0c-1.638,-0.907 -3.183,-2.038 -4.57,-3.426zm-26.13,73.802l296.683,0c5.478,0 9.934,4.456 9.934,9.934l0,31.396c-4.406,1.384 -9.153,2.021 -14.755,2.021c-14.914,0 -21.72,-4.537 -30.336,-10.281c-9.591,-6.394 -20.461,-13.64 -41.43,-13.64c-20.968,0 -31.838,7.246 -41.428,13.64c-8.616,5.744 -15.421,10.281 -30.334,10.281c-14.913,0 -21.718,-4.537 -30.333,-10.281c-9.59,-6.393 -20.459,-13.64 -41.427,-13.64c-20.967,0 -31.836,7.247 -41.426,13.64c-8.615,5.744 -15.42,10.281 -30.331,10.281c-5.6,0 -10.345,-0.638 -14.75,-2.02l0,-31.397l-0.001,0c0,-5.478 4.457,-9.934 9.934,-9.934zm353.627,289.307l-410.572,0l0,-96.109c8.502,1.564 13.918,5.168 20.333,9.445c9.59,6.394 20.459,13.64 41.428,13.64c20.967,0 31.836,-7.247 41.426,-13.64c8.615,-5.744 15.42,-10.281 30.331,-10.281c14.912,0 21.718,4.537 30.333,10.281c9.59,6.394 20.459,13.64 41.427,13.64c20.969,0 31.838,-7.247 41.428,-13.64c8.616,-5.744 15.421,-10.281 30.334,-10.281c14.914,0 21.72,4.537 30.336,10.281c9.591,6.393 20.46,13.64 41.43,13.64c20.969,0 31.839,-7.247 41.43,-13.64c6.416,-4.277 11.833,-7.882 20.336,-9.446l0,96.11zm0,-116.34c-14.683,1.87 -23.495,7.744 -31.43,13.034c-8.616,5.744 -15.422,10.281 -30.336,10.281s-21.719,-4.537 -30.336,-10.281c-9.591,-6.393 -20.461,-13.64 -41.43,-13.64c-20.968,0 -31.838,7.247 -41.428,13.64c-8.616,5.744 -15.421,10.281 -30.334,10.281c-14.913,0 -21.718,-4.537 -30.333,-10.281c-9.59,-6.394 -20.459,-13.64 -41.428,-13.64c-20.967,0 -31.836,7.247 -41.426,13.64c-8.615,5.744 -15.42,10.281 -30.331,10.281c-14.913,0 -21.718,-4.537 -30.333,-10.281c-7.935,-5.29 -16.745,-11.164 -31.427,-13.034l0,-34.46c0,-5.478 4.457,-9.934 9.934,-9.934l76.745,0c5.523,0 10,-4.477 10,-10s-4.477,-10 -10,-10l-39.668,0l0,-46.631c4.602,0.941 9.464,1.41 14.75,1.41c20.967,0 31.836,-7.247 41.426,-13.64c8.615,-5.744 15.42,-10.281 30.331,-10.281c14.913,0 21.718,4.537 30.333,10.281c9.59,6.393 20.459,13.64 41.427,13.64s31.838,-7.247 41.428,-13.64c8.616,-5.744 15.421,-10.281 30.334,-10.281c14.914,0 21.72,4.537 30.336,10.281c9.591,6.394 20.461,13.64 41.43,13.64c5.288,0 10.152,-0.47 14.755,-1.411l0,46.633l-197.146,0c-5.523,0 -10,4.477 -10,10s4.477,10 10,10l234.223,0c5.478,0 9.934,4.457 9.934,9.934l0,34.459z"/>
   </g>
  </g>
  <g id="svg_7">
   <g id="svg_8">
    <path fill="#ff56ff" id="svg_9" d="m97.53,456.539c-0.13,-0.64 -0.32,-1.27 -0.57,-1.87c-0.25,-0.6 -0.56,-1.18 -0.92,-1.73c-0.37,-0.54 -0.78,-1.05 -1.25,-1.52c-0.46,-0.46 -0.97,-0.87 -1.52,-1.24c-0.54,-0.36 -1.12,-0.67 -1.72,-0.92c-0.6,-0.25 -1.23,-0.44 -1.87,-0.57c-3.25,-0.65 -6.7,0.41 -9.03,2.73c-0.46,0.47 -0.88,0.98 -1.24,1.52c-0.36,0.55 -0.67,1.13 -0.92,1.73c-0.25,0.6 -0.44,1.23 -0.57,1.87c-0.13,0.65 -0.19,1.3 -0.19,1.96c0,0.65 0.06,1.3 0.19,1.95c0.13,0.64 0.32,1.27 0.57,1.87c0.25,0.6 0.56,1.18 0.92,1.73c0.36,0.54 0.78,1.05 1.24,1.52c1.86,1.86 4.44,2.93 7.08,2.93c0.65,0 1.3,-0.07 1.95,-0.2c0.64,-0.13 1.27,-0.32 1.87,-0.57c0.6,-0.25 1.18,-0.56 1.72,-0.92c0.55,-0.37 1.06,-0.78 1.52,-1.24c0.47,-0.47 0.88,-0.98 1.25,-1.52c0.36,-0.55 0.67,-1.13 0.92,-1.73c0.25,-0.6 0.44,-1.23 0.57,-1.87c0.13,-0.65 0.2,-1.3 0.2,-1.95c0,-0.66 -0.07,-1.309 -0.2,-1.96z"/>
   </g>
  </g>
  <g id="svg_10">
   <g id="svg_11">
    <path fill="#ff56ff" id="svg_12" d="m205.01,426.639c-0.13,-0.64 -0.32,-1.27 -0.57,-1.87c-0.25,-0.6 -0.56,-1.18 -0.92,-1.73c-0.37,-0.54 -0.79,-1.06 -1.25,-1.52c-0.46,-0.46 -0.97,-0.88 -1.52,-1.24c-0.54,-0.36 -1.12,-0.67 -1.72,-0.92c-0.61,-0.25 -1.24,-0.44 -1.87,-0.57c-1.29,-0.26 -2.62,-0.26 -3.91,0c-0.64,0.13 -1.27,0.32 -1.87,0.57c-0.61,0.25 -1.19,0.56 -1.73,0.92c-0.55,0.36 -1.06,0.78 -1.52,1.24c-0.46,0.46 -0.88,0.98 -1.24,1.52c-0.36,0.55 -0.67,1.13 -0.92,1.73c-0.25,0.6 -0.44,1.23 -0.57,1.87c-0.13,0.65 -0.2,1.3 -0.2,1.95c0,0.66 0.07,1.31 0.2,1.96c0.13,0.64 0.32,1.27 0.57,1.87c0.25,0.6 0.56,1.18 0.92,1.73c0.36,0.54 0.78,1.06 1.24,1.52c0.46,0.46 0.97,0.87 1.52,1.24c0.54,0.36 1.12,0.67 1.73,0.92c0.6,0.25 1.23,0.44 1.87,0.57s1.3,0.2 1.95,0.2s1.31,-0.07 1.96,-0.2c0.63,-0.13 1.26,-0.32 1.87,-0.57c0.6,-0.25 1.18,-0.56 1.72,-0.92c0.55,-0.37 1.06,-0.78 1.52,-1.24c0.46,-0.46 0.88,-0.98 1.25,-1.52c0.36,-0.55 0.67,-1.13 0.92,-1.73c0.25,-0.6 0.44,-1.23 0.57,-1.87c0.13,-0.65 0.19,-1.3 0.19,-1.96c0,-0.65 -0.06,-1.3 -0.19,-1.95z"/>
   </g>
  </g>
  <g id="svg_13">
   <g id="svg_14">
    <path fill="#ff56ff" id="svg_15" d="m320.62,456.539c-0.13,-0.64 -0.32,-1.27 -0.57,-1.87c-0.25,-0.6 -0.56,-1.18 -0.92,-1.73c-0.36,-0.54 -0.78,-1.05 -1.24,-1.52c-0.46,-0.46 -0.97,-0.87 -1.52,-1.24c-0.54,-0.36 -1.12,-0.67 -1.73,-0.92c-0.6,-0.25 -1.23,-0.44 -1.87,-0.57c-1.29,-0.26 -2.62,-0.26 -3.91,0c-0.63,0.13 -1.26,0.32 -1.87,0.57c-0.6,0.25 -1.18,0.56 -1.72,0.92c-0.55,0.37 -1.06,0.78 -1.52,1.24c-0.46,0.47 -0.88,0.98 -1.25,1.52c-0.36,0.55 -0.67,1.13 -0.92,1.73c-0.25,0.6 -0.44,1.23 -0.57,1.87c-0.13,0.65 -0.19,1.3 -0.19,1.96c0,0.65 0.06,1.3 0.19,1.95c0.13,0.64 0.32,1.27 0.57,1.87c0.25,0.6 0.56,1.18 0.92,1.73c0.37,0.54 0.79,1.06 1.25,1.52c0.46,0.46 0.97,0.88 1.52,1.24c0.54,0.36 1.12,0.67 1.72,0.92c0.61,0.25 1.24,0.44 1.87,0.57c0.65,0.13 1.31,0.2 1.96,0.2c2.63,0 5.21,-1.07 7.07,-2.93c0.46,-0.46 0.88,-0.98 1.24,-1.52c0.36,-0.55 0.67,-1.13 0.92,-1.73c0.25,-0.6 0.44,-1.23 0.57,-1.87c0.13,-0.65 0.2,-1.3 0.2,-1.95c0,-0.66 -0.07,-1.31 -0.2,-1.96z"/>
   </g>
  </g>
  <g id="svg_16">
   <g id="svg_17">
    <path fill="#ff56ff" id="svg_18" d="m434.08,432.62c-0.13,-0.64 -0.32,-1.27 -0.57,-1.87c-0.25,-0.6 -0.56,-1.19 -0.92,-1.73s-0.78,-1.06 -1.24,-1.52c-1.87,-1.86 -4.44,-2.93 -7.07,-2.93c-2.64,0 -5.21,1.07 -7.08,2.93c-0.46,0.46 -0.87,0.98 -1.24,1.52c-0.36,0.54 -0.67,1.13 -0.92,1.73c-0.25,0.6 -0.44,1.23 -0.57,1.87s-0.19,1.3 -0.19,1.95c0,0.66 0.06,1.31 0.19,1.96c0.13,0.64 0.32,1.27 0.57,1.87c0.25,0.6 0.56,1.18 0.92,1.72c0.37,0.55 0.78,1.06 1.24,1.53c0.47,0.46 0.98,0.87 1.52,1.24c0.55,0.36 1.13,0.67 1.73,0.92c0.6,0.25 1.23,0.44 1.87,0.57c0.65,0.13 1.3,0.19 1.96,0.19c2.63,0 5.21,-1.06 7.07,-2.92c0.46,-0.47 0.88,-0.98 1.24,-1.53c0.36,-0.54 0.67,-1.12 0.92,-1.72c0.25,-0.61 0.44,-1.23 0.57,-1.87c0.13,-0.65 0.2,-1.3 0.2,-1.96c0,-0.651 -0.07,-1.31 -0.2,-1.95z"/>
   </g>
  </g>
  <g id="svg_19">
   <g id="svg_20">
    <path fill="#ff56ff" id="svg_21" d="m334.58,269.159c-0.13,-0.63 -0.32,-1.26 -0.57,-1.87c-0.25,-0.6 -0.56,-1.18 -0.92,-1.72c-0.37,-0.55 -0.79,-1.06 -1.25,-1.52c-0.46,-0.47 -0.97,-0.88 -1.52,-1.25c-0.54,-0.36 -1.12,-0.67 -1.72,-0.92c-0.61,-0.25 -1.24,-0.44 -1.87,-0.57c-1.29,-0.26 -2.62,-0.26 -3.91,0c-0.64,0.13 -1.27,0.32 -1.87,0.57c-0.61,0.25 -1.19,0.56 -1.73,0.92c-0.55,0.37 -1.06,0.78 -1.52,1.25c-0.46,0.46 -0.88,0.97 -1.24,1.52c-0.36,0.54 -0.67,1.12 -0.92,1.72c-0.25,0.61 -0.44,1.24 -0.57,1.87c-0.13,0.65 -0.2,1.31 -0.2,1.96c0,0.65 0.07,1.31 0.2,1.95c0.13,0.64 0.32,1.27 0.57,1.87c0.25,0.6 0.56,1.19 0.92,1.73c0.36,0.55 0.78,1.06 1.24,1.52c0.46,0.46 0.97,0.88 1.52,1.24c0.54,0.36 1.12,0.67 1.73,0.92c0.6,0.25 1.23,0.44 1.87,0.57s1.3,0.2 1.95,0.2s1.31,-0.07 1.96,-0.2c0.63,-0.13 1.26,-0.32 1.87,-0.57c0.6,-0.25 1.18,-0.56 1.72,-0.92c0.55,-0.36 1.06,-0.78 1.52,-1.24c0.46,-0.46 0.88,-0.97 1.25,-1.52c0.36,-0.54 0.67,-1.13 0.92,-1.73c0.25,-0.6 0.44,-1.23 0.57,-1.87s0.19,-1.3 0.19,-1.95c0,-0.65 -0.06,-1.31 -0.19,-1.96z"/>
   </g>
  </g>
  <g id="svg_22">
   <g id="svg_23">
    <path fill="#ff56ff" id="svg_24" d="m204.01,255.54c-0.13,-0.64 -0.32,-1.27 -0.57,-1.87c-0.25,-0.6 -0.56,-1.18 -0.92,-1.73c-0.36,-0.54 -0.78,-1.06 -1.24,-1.52c-0.46,-0.46 -0.98,-0.88 -1.52,-1.24c-0.55,-0.36 -1.13,-0.67 -1.73,-0.92c-0.6,-0.25 -1.23,-0.44 -1.87,-0.57c-1.29,-0.26 -2.62,-0.26 -3.91,0c-0.64,0.13 -1.27,0.32 -1.87,0.57s-1.18,0.56 -1.73,0.92c-0.54,0.36 -1.05,0.78 -1.52,1.24c-0.46,0.46 -0.87,0.98 -1.24,1.52c-0.36,0.55 -0.67,1.13 -0.92,1.73c-0.25,0.6 -0.44,1.23 -0.57,1.87c-0.13,0.65 -0.19,1.3 -0.19,1.96c0,0.65 0.06,1.3 0.19,1.95c0.13,0.64 0.32,1.27 0.57,1.87c0.25,0.6 0.56,1.18 0.92,1.73c0.37,0.54 0.78,1.05 1.24,1.52c0.47,0.46 0.98,0.87 1.52,1.24c0.55,0.36 1.13,0.67 1.73,0.92s1.23,0.44 1.87,0.57c0.65,0.13 1.3,0.2 1.96,0.2c0.65,0 1.31,-0.07 1.95,-0.2c0.64,-0.13 1.27,-0.32 1.87,-0.57c0.6,-0.25 1.18,-0.56 1.73,-0.92c0.54,-0.37 1.06,-0.78 1.52,-1.24c0.46,-0.47 0.87,-0.98 1.24,-1.52c0.36,-0.55 0.67,-1.13 0.92,-1.73c0.25,-0.6 0.44,-1.23 0.57,-1.87c0.13,-0.65 0.19,-1.3 0.19,-1.95c0,-0.661 -0.06,-1.311 -0.19,-1.96z"/>
   </g>
  </g>
  <g id="svg_25"/>
  <g id="svg_26"/>
  <g id="svg_27"/>
  <g id="svg_28"/>
  <g id="svg_29"/>
  <g id="svg_30"/>
  <g id="svg_31"/>
  <g id="svg_32"/>
  <g id="svg_33"/>
  <g id="svg_34"/>
  <g id="svg_35"/>
  <g id="svg_36"/>
  <g id="svg_37"/>
  <g id="svg_38"/>
  <g id="svg_39"/>
 </g>
</svg>