<?xml version="1.0" standalone="no"?>
<!DOCTYPE svg PUBLIC "-//W3C//DTD SVG 20010904//EN"
 "http://www.w3.org/TR/2001/REC-SVG-20010904/DTD/svg10.dtd">
<svg version="1.0" xmlns="http://www.w3.org/2000/svg"
 width="256.000000pt" height="256.000000pt" viewBox="0 0 256.000000 256.000000"
 preserveAspectRatio="xMidYMid meet">
<metadata>
Created by potrace 1.16, written by Peter Selinger 2001-2019
</metadata>
<g transform="translate(0.000000,256.000000) scale(0.100000,-0.100000)"
fill="#000000" stroke="none">
<path d="M632 2528 c-8 -8 -12 -45 -12 -100 l0 -88 -288 0 c-211 0 -291 -3
-300 -12 -16 -16 -15 -83 1 -97 10 -7 341 -11 1150 -13 1129 -3 1136 -3 1163
-24 15 -11 37 -33 48 -48 21 -27 21 -34 21 -966 0 -932 0 -939 -21 -966 -11
-15 -33 -37 -48 -48 -27 -21 -33 -21 -1066 -21 -1033 0 -1039 0 -1066 21 -15
11 -37 33 -48 48 -21 27 -21 36 -21 766 0 730 0 739 21 766 11 15 33 37 48 48
27 21 36 21 964 24 661 2 939 6 949 13 16 14 17 81 1 97 -17 17 -1883 17
-1940 0 -52 -16 -121 -77 -147 -133 -21 -44 -21 -51 -21 -806 0 -569 3 -772
12 -803 16 -55 99 -138 154 -154 60 -17 2128 -17 2188 0 55 16 138 99 154 154
17 59 17 1929 0 1988 -16 55 -99 138 -154 154 -26 8 -113 12 -238 12 l-196 0
0 88 c0 99 -7 112 -60 112 -53 0 -60 -13 -60 -112 l0 -88 -540 0 -540 0 0 88
c0 99 -7 112 -60 112 -20 0 -41 -5 -48 -12z"/>
<path d="M484 1526 c-43 -19 -101 -82 -115 -123 -6 -19 -9 -65 -7 -101 4 -78
34 -131 95 -172 32 -22 47 -25 122 -25 77 0 90 3 126 27 22 15 51 44 65 65 22
32 25 47 25 123 0 78 -3 91 -27 126 -47 66 -90 89 -177 92 -49 1 -87 -3 -107
-12z m161 -141 c19 -18 25 -35 25 -65 0 -56 -34 -90 -90 -90 -30 0 -47 6 -65
25 -19 18 -25 35 -25 65 0 30 6 47 25 65 18 19 35 25 65 25 30 0 47 -6 65 -25z"/>
<path d="M1184 1526 c-43 -19 -101 -82 -115 -123 -6 -19 -9 -65 -7 -101 4 -78
34 -131 95 -172 32 -22 47 -25 122 -25 77 0 90 3 126 27 22 15 51 44 65 65 22
32 25 47 25 123 0 78 -3 91 -27 126 -47 66 -90 89 -177 92 -49 1 -87 -3 -107
-12z m161 -141 c19 -18 25 -35 25 -65 0 -30 -6 -47 -25 -65 -18 -19 -35 -25
-65 -25 -56 0 -90 34 -90 90 0 56 34 90 90 90 30 0 47 -6 65 -25z"/>
<path d="M1882 1524 c-87 -44 -126 -115 -120 -218 4 -83 27 -125 92 -172 38
-27 48 -29 127 -29 78 0 89 2 122 28 20 15 49 44 64 64 26 33 28 44 28 122 0
77 -3 90 -27 124 -45 67 -92 91 -178 95 -55 2 -84 -2 -108 -14z"/>
<path d="M482 824 c-87 -44 -126 -115 -120 -218 4 -83 27 -125 92 -172 38 -27
48 -29 127 -29 78 0 89 2 122 28 20 15 49 44 64 64 26 33 28 44 28 122 0 77
-3 90 -27 124 -45 67 -92 91 -178 95 -55 2 -84 -2 -108 -14z"/>
<path d="M1184 826 c-43 -19 -101 -82 -115 -123 -6 -19 -9 -65 -7 -101 4 -78
34 -131 95 -172 32 -22 47 -25 122 -25 77 0 90 3 126 27 22 15 51 44 65 65 22
32 25 47 25 123 0 78 -3 91 -27 126 -47 66 -90 89 -177 92 -49 1 -87 -3 -107
-12z m161 -141 c19 -18 25 -35 25 -65 0 -56 -34 -90 -90 -90 -56 0 -90 34 -90
90 0 30 6 47 25 65 18 19 35 25 65 25 30 0 47 -6 65 -25z"/>
<path d="M1884 826 c-43 -19 -101 -82 -115 -123 -6 -19 -9 -65 -7 -101 4 -78
34 -131 95 -172 32 -22 47 -25 122 -25 77 0 90 3 126 27 22 15 51 44 65 65 22
32 25 47 25 123 0 78 -3 91 -27 126 -47 66 -90 89 -177 92 -49 1 -87 -3 -107
-12z m161 -141 c19 -18 25 -35 25 -65 0 -56 -34 -90 -90 -90 -56 0 -90 34 -90
90 0 56 34 90 90 90 30 0 47 -6 65 -25z"/>
</g>
</svg>
