<?xml version="1.0" standalone="no"?>
<!DOCTYPE svg PUBLIC "-//W3C//DTD SVG 20010904//EN"
 "http://www.w3.org/TR/2001/REC-SVG-20010904/DTD/svg10.dtd">
<svg version="1.0" xmlns="http://www.w3.org/2000/svg"
 width="256.000000pt" height="256.000000pt" viewBox="0 0 256.000000 256.000000"
 preserveAspectRatio="xMidYMid meet">
<metadata>
Created by potrace 1.16, written by Peter Selinger 2001-2019
</metadata>
<g transform="translate(0.000000,256.000000) scale(0.100000,-0.100000)"
fill="#000000" stroke="none">
<path d="M1427 2549 c-30 -17 -47 -73 -47 -149 0 -92 18 -136 65 -156 49 -20
99 -10 130 28 23 27 25 37 25 132 0 98 -1 105 -26 130 -22 21 -36 26 -78 26
-28 0 -59 -5 -69 -11z"/>
<path d="M734 2256 c-38 -38 -45 -86 -20 -134 21 -39 106 -119 141 -132 73
-28 145 25 145 107 0 41 -5 50 -57 105 -96 99 -150 113 -209 54z"/>
<path d="M2135 2280 c-11 -4 -48 -37 -83 -72 -46 -47 -64 -74 -68 -100 -12
-72 52 -136 124 -124 48 7 169 125 178 173 16 86 -71 157 -151 123z"/>
<path d="M1388 2130 c-84 -15 -175 -50 -240 -92 -71 -46 -164 -138 -193 -192
-16 -29 -25 -36 -50 -36 -17 0 -64 -9 -105 -21 -271 -75 -496 -301 -565 -569
-14 -54 -26 -74 -81 -134 -68 -72 -124 -174 -143 -256 -20 -86 -14 -231 14
-318 63 -198 235 -354 440 -397 103 -22 1416 -22 1520 0 176 37 328 152 405
308 89 182 91 359 4 535 -45 91 -139 194 -225 244 -35 21 -66 39 -71 40 -4 2
2 32 14 68 17 51 21 90 21 185 1 105 -3 130 -27 200 -90 260 -310 428 -579
440 -50 2 -113 0 -139 -5z m263 -246 c108 -39 202 -140 240 -256 29 -92 24
-208 -13 -289 -24 -53 -28 -56 -68 -63 -24 -4 -43 -5 -44 -4 -1 2 -14 31 -28
65 -38 89 -93 169 -173 248 -83 83 -168 138 -283 181 l-83 31 48 36 c63 46
115 67 188 75 72 9 148 0 216 -24z m-502 -310 c158 -36 306 -154 380 -305 25
-51 49 -121 62 -179 11 -52 22 -96 24 -99 3 -2 40 11 82 30 70 30 87 34 173
34 84 0 102 -3 152 -28 73 -36 139 -101 175 -175 25 -51 28 -68 28 -157 0 -87
-3 -107 -26 -156 -54 -115 -158 -190 -290 -209 -83 -12 -1284 -12 -1368 0
-126 18 -233 96 -287 208 -25 50 -28 69 -29 152 0 84 3 102 29 157 26 56 107
149 156 179 10 5 21 38 28 82 55 328 380 542 711 466z"/>
<path d="M2259 1571 c-24 -25 -29 -38 -29 -78 0 -84 43 -113 164 -113 127 0
166 28 166 119 0 43 -4 53 -31 75 -29 24 -37 26 -136 26 -102 0 -105 -1 -134
-29z"/>
</g>
</svg>
