<svg width="512" height="512" xmlns="http://www.w3.org/2000/svg">

 <g>
  <title>background</title>
  <rect fill="none" id="canvas_background" height="514" width="514" y="-1" x="-1"/>
 </g>
 <g>
  <title>Layer 1</title>
  <g id="svg_1">
   <path fill="#00ff7f" id="svg_2" d="m279.98,84.681l-59.354,0l0,-69.681l12.501,0c4.142,0 7.501,-3.358 7.501,-7.5s-3.359,-7.5 -7.501,-7.5l-151.232,0c-4.142,0 -7.501,3.358 -7.501,7.5s3.358,7.5 7.501,7.5l12.501,0l0,69.681l-59.354,0c-19.323,0 -35.042,15.718 -35.042,35.039l0,324.922c0,17.61 13.059,32.227 30.002,34.677l0,10.181c0,12.407 10.094,22.5 22.502,22.5s22.502,-10.093 22.502,-22.5l0,-9.819l165.011,0l0,9.819c0,12.407 10.094,22.5 22.502,22.5c12.407,0 22.502,-10.093 22.502,-22.5l0,-10.181c16.943,-2.451 30.002,-17.067 30.002,-34.677l0,-267.827c0,-4.142 -3.358,-7.5 -7.501,-7.5s-7.501,3.358 -7.501,7.5l0,267.827c0,11.05 -8.99,20.039 -20.04,20.039l-244.939,0c-11.05,0 -20.04,-8.989 -20.04,-20.039l0,-324.922c0,-11.05 8.99,-20.039 20.04,-20.039l244.938,0c11.051,0 20.04,8.989 20.04,20.039l0,21.985c0,4.142 3.358,7.5 7.501,7.5s7.501,-3.358 7.501,-7.5l0,-21.985c-0.001,-19.321 -15.72,-35.039 -35.042,-35.039zm-9.962,395l0,9.819c0,4.136 -3.365,7.5 -7.501,7.5s-7.501,-3.364 -7.501,-7.5l0,-9.819l15.002,0zm-210.014,0l0,9.819c0,4.136 -3.365,7.5 -7.501,7.5s-7.5,-3.364 -7.5,-7.5l0,-9.819l15.001,0zm49.393,-464.681l96.228,0l0,69.681l-96.228,0l0,-69.681z"/>
   <path fill="#00ff7f" id="svg_3" d="m101.78,449.681l175.739,0c4.143,0 7.501,-3.358 7.501,-7.5l0,-167c0,-4.142 -3.358,-7.5 -7.501,-7.5l-240.016,0c-4.142,0 -7.501,3.358 -7.501,7.5l0,167c0,4.142 3.358,7.5 7.501,7.5l30.002,0c4.142,0 7.501,-3.358 7.501,-7.5s-3.358,-7.5 -7.501,-7.5l-22.502,0l0,-152l225.015,0l0,152l-168.238,0c-4.142,0 -7.501,3.358 -7.501,7.5s3.359,7.5 7.501,7.5z"/>
   <path fill="#00ff7f" id="svg_4" d="m223.516,344.176c4.142,0 7.501,-3.358 7.501,-7.5l0,-24.361l16.501,0c4.143,0 7.501,-3.358 7.501,-7.5s-3.358,-7.5 -7.501,-7.5l-180.013,0c-4.142,0 -7.501,3.358 -7.501,7.5s3.358,7.5 7.501,7.5l148.51,0l0,24.361c0,4.142 3.358,7.5 7.501,7.5z"/>
   <path fill="#00ff7f" id="svg_5" d="m207.514,204.609c4.142,0 7.501,-3.358 7.501,-7.5l0,-30c0,-4.142 -3.358,-7.5 -7.501,-7.5l-100.007,0c-4.142,0 -7.501,3.358 -7.501,7.5l0,30c0,4.142 3.358,7.5 7.501,7.5l100.007,0zm-92.506,-30l85.006,0l0,15l-85.006,0l0,-15z"/>
   <path fill="#00ff7f" id="svg_6" d="m476.958,234.366l-59.616,0l0,-28.533c0,-13.155 -10.703,-23.857 -23.859,-23.857l-56.455,0c-4.143,0 -7.501,3.358 -7.501,7.5s3.358,7.5 7.501,7.5l56.455,0c4.884,0 8.858,3.974 8.858,8.857l0,28.533l-65.313,0c-4.143,0 -7.501,3.358 -7.501,7.5s3.358,7.5 7.501,7.5l65.313,0l0,14.994l-15.854,16.149c-1.376,1.402 -2.148,3.289 -2.148,5.254l0,46c0,4.142 3.358,7.5 7.501,7.5l36.003,0c4.143,0 7.501,-3.358 7.501,-7.5l0,-46c0,-1.965 -0.772,-3.852 -2.148,-5.254l-15.854,-16.149l0,-14.994l59.616,0c11.051,0 20.041,8.989 20.041,20.039l0,118.194l-25.517,0c-4.143,0 -7.501,3.358 -7.501,7.5s3.358,7.5 7.501,7.5l25.517,0l0,19.764l-159.972,0c-4.143,0 -7.501,3.358 -7.501,7.5s3.358,7.5 7.501,7.5l159.972,0l0,7.28c0,11.05 -8.991,20.039 -20.041,20.039l-139.931,0c-4.143,0 -7.501,3.358 -7.501,7.5s3.358,7.5 7.501,7.5l102.428,0l0,9.819c0,12.407 10.094,22.5 22.502,22.5s22.502,-10.093 22.502,-22.5l0,-10.627c15.73,-3.444 27.541,-17.485 27.541,-34.232l0,-175.237c0,-19.321 -15.72,-35.039 -35.042,-35.039zm-56.617,89.897l-21.001,0l0,-35.434l10.501,-10.696l10.501,10.696l0,35.434l-0.001,0zm49.116,165.237c0,4.136 -3.365,7.5 -7.501,7.5s-7.501,-3.364 -7.501,-7.5l0,-9.819l15.001,0l0,9.819l0.001,0z"/>
   <path fill="#00ff7f" id="svg_7" d="m337.027,402.599l99.794,0c4.143,0 7.501,-3.358 7.501,-7.5s-3.358,-7.5 -7.501,-7.5l-99.794,0c-4.143,0 -7.501,3.358 -7.501,7.5s3.358,7.5 7.501,7.5z"/>
  </g>
 </g>
</svg>