<?xml version="1.0" standalone="no"?>
<!DOCTYPE svg PUBLIC "-//W3C//DTD SVG 20010904//EN"
 "http://www.w3.org/TR/2001/REC-SVG-20010904/DTD/svg10.dtd">
<svg version="1.0" xmlns="http://www.w3.org/2000/svg"
 width="256.000000pt" height="256.000000pt" viewBox="0 0 256.000000 256.000000"
 preserveAspectRatio="xMidYMid meet">
<metadata>
Created by potrace 1.16, written by Peter Selinger 2001-2019
</metadata>
<g transform="translate(0.000000,256.000000) scale(0.100000,-0.100000)"
fill="#000000" stroke="none">
<path d="M0 1490 l0 -1070 420 -210 c231 -115 427 -210 435 -210 18 0 235 107
235 116 0 14 -147 164 -161 164 -17 0 -84 131 -118 232 -101 295 -64 609 102
866 l47 73 0 302 0 302 93 34 c50 18 98 36 105 38 9 4 12 -47 12 -237 0 -133
3 -240 8 -238 4 2 53 26 109 53 l102 50 1 230 0 231 93 33 c50 19 98 36 105
39 9 3 12 -49 12 -239 l0 -244 110 0 110 0 0 228 c0 125 2 227 5 227 3 0 48
-21 100 -47 l95 -48 0 -211 0 -211 43 -13 c23 -7 69 -26 102 -44 33 -17 63
-32 68 -34 4 -2 7 87 7 197 0 111 2 201 5 201 2 0 25 -10 50 -22 l45 -22 0
-219 0 -219 68 -74 c38 -41 86 -103 107 -139 21 -36 39 -65 41 -65 2 0 4 191
4 425 l0 425 -420 210 c-231 115 -427 210 -435 210 -8 0 -201 -70 -428 -155
-228 -85 -418 -155 -424 -155 -5 0 -196 70 -423 155 -227 85 -417 155 -421
155 -5 0 -9 -481 -9 -1070z m283 729 l37 -12 0 -849 c0 -466 -2 -848 -5 -848
-2 0 -25 10 -50 22 l-45 22 0 844 c0 671 3 843 13 838 6 -2 29 -10 50 -17z
m375 -141 l82 -31 0 -873 c0 -481 -2 -874 -5 -874 -3 0 -48 21 -100 47 l-95
48 0 863 c0 819 1 864 18 857 9 -4 54 -21 100 -37z"/>
<path d="M1555 1699 c-437 -86 -727 -457 -702 -897 7 -131 34 -228 93 -342
104 -202 273 -346 494 -421 85 -29 110 -33 235 -37 117 -3 154 -1 228 17 318
76 562 320 638 638 18 74 20 111 17 228 -4 125 -8 150 -37 235 -93 274 -309
482 -581 560 -87 25 -303 36 -385 19z m300 -154 c39 -8 113 -36 165 -61 81
-40 109 -60 185 -138 74 -74 99 -107 132 -176 54 -112 73 -193 73 -317 0 -393
-309 -703 -702 -704 -120 0 -206 20 -318 74 -69 33 -102 58 -176 132 -78 76
-98 104 -138 185 -103 210 -102 414 1 630 38 79 59 108 132 180 69 69 103 95
173 130 153 75 315 98 473 65z"/>
<path d="M1630 1428 c-7 -59 -30 -480 -30 -545 l0 -92 219 -200 c121 -111 223
-201 228 -201 4 0 23 18 41 41 l34 40 -149 155 c-81 86 -164 175 -184 197
l-36 42 -12 230 c-6 127 -14 254 -17 283 l-6 52 -44 0 c-24 0 -44 -1 -44 -2z"/>
</g>
</svg>
