<?xml version="1.0" standalone="no"?>
<!DOCTYPE svg PUBLIC "-//W3C//DTD SVG 20010904//EN"
 "http://www.w3.org/TR/2001/REC-SVG-20010904/DTD/svg10.dtd">
<svg version="1.0" xmlns="http://www.w3.org/2000/svg"
 width="256.000000pt" height="256.000000pt" viewBox="0 0 256.000000 256.000000"
 preserveAspectRatio="xMidYMid meet">
<metadata>
Created by potrace 1.16, written by Peter Selinger 2001-2019
</metadata>
<g transform="translate(0.000000,256.000000) scale(0.100000,-0.100000)"
fill="#000000" stroke="none">
<path d="M722 2543 c-11 -10 -91 -108 -178 -218 -86 -110 -160 -203 -163 -207
-4 -4 -60 28 -126 72 -137 91 -170 99 -224 54 -26 -22 -31 -33 -31 -71 0 -24
5 -53 11 -64 6 -11 85 -69 175 -130 147 -97 170 -109 209 -109 32 0 51 6 68
23 14 12 116 136 226 275 184 231 201 256 201 291 0 28 -8 49 -26 70 -22 27
-32 31 -74 31 -31 0 -55 -6 -68 -17z"/>
<path d="M1180 2165 l0 -105 690 0 690 0 0 105 0 105 -690 0 -690 0 0 -105z"/>
<path d="M744 1670 c-12 -5 -99 -106 -194 -225 -110 -137 -177 -214 -186 -211
-7 3 -61 37 -118 76 -91 60 -111 70 -149 70 -65 0 -97 -33 -97 -100 0 -36 5
-55 20 -70 10 -10 87 -65 171 -121 164 -110 207 -126 254 -95 25 16 411 492
434 533 14 27 14 78 1 104 -22 39 -88 59 -136 39z"/>
<path d="M1180 1280 l0 -100 690 0 690 0 0 100 0 100 -690 0 -690 0 0 -100z"/>
<path d="M727 770 c-14 -11 -94 -107 -178 -213 -84 -106 -158 -198 -164 -205
-10 -11 -35 2 -136 68 -115 76 -127 82 -164 77 -56 -8 -85 -44 -85 -106 0 -37
5 -52 23 -68 40 -37 325 -222 351 -229 55 -13 80 11 301 288 200 250 215 271
215 309 0 83 -98 130 -163 79z"/>
<path d="M1180 395 l0 -105 690 0 690 0 0 105 0 105 -690 0 -690 0 0 -105z"/>
</g>
</svg>
