<svg width="512" height="512" xmlns="http://www.w3.org/2000/svg">

 <g>
  <title>background</title>
  <rect fill="none" id="canvas_background" height="602" width="802" y="-1" x="-1"/>
 </g>
 <g>
  <title>Layer 1</title>
  <path fill="#56aaff" id="svg_1" d="m75,512l167,0l0,-182l-60,0l0,-60l60,0l0,-75c0,-41.35547 33.64453,-75 75,-75l75,0l0,60l-60,0c-16.54297,0 -30,13.45703 -30,30l0,60l87.29297,0l-10,60l-77.29297,0l0,182l135,0c41.35547,0 75,-33.64453 75,-75l0,-362c0,-41.35547 -33.64453,-75 -75,-75l-362,0c-41.35547,0 -75,33.64453 -75,75l0,362c0,41.35547 33.64453,75 75,75zm-45,-437c0,-24.8125 20.1875,-45 45,-45l362,0c24.8125,0 45,20.1875 45,45l0,362c0,24.8125 -20.1875,45 -45,45l-105,0l0,-122l72.70703,0l20,-120l-92.70703,0l0,-30l90,0l0,-120l-105,0c-57.89844,0 -105,47.10156 -105,105l0,45l-60,0l0,120l60,0l0,122l-137,0c-24.8125,0 -45,-20.1875 -45,-45l0,-362zm0,0"/>
 </g>
</svg>