<svg width="512" height="512" xmlns="http://www.w3.org/2000/svg">

 <g>
  <title>background</title>
  <rect fill="none" id="canvas_background" height="602" width="802" y="-1" x="-1"/>
 </g>
 <g>
  <title>Layer 1</title>
  <path fill="#cccccc" id="svg_1" d="m257,0c-140.69922,0 -256,116.30078 -256,257c0,139.88281 114.25,255 256,255c141.57422,0 256,-114.94531 256,-255c0,-140.69922 -115.30078,-257 -256,-257zm45,477.5c-14.39844,3 -29.69922,4.5 -45,4.5s-30.60156,-1.5 -45,-4.5l0,-70.19922c0,-16.80078 4.5,-22.80078 10.5,-30.90234c3.05469,-3.49219 4.89844,-6.625 18.59766,-27.29688l-23.09766,-3.60156c-59.40234,-8.69922 -82.80078,-39.60156 -92.10156,-63.60156c-12,-32.09766 -5.69922,-72.30078 15.90234,-97.79688c3.30078,-3.90234 6,-10.5039 3.60156,-17.40234c-4.5039,-13.80078 -3.90234,-35.69922 -0.90234,-44.10156c15.90625,2.27343 32.26172,13.66797 45.90234,21.90234c6.28516,3.66797 9.58204,2.69922 12.59766,3c10.96094,-2.28125 28.05859,-7.80078 54.30078,-7.80078c16.19922,0 33.30078,2.39844 50.10156,7.19922c3.00391,-0.07031 7.83204,2.48437 16.19922,-2.39844c14.25782,-8.6875 30.0586,-19.69141 45.89844,-21.90234c3,8.40234 3.60156,30.30078 -0.89844,44.10156c-2.40234,6.89844 0.29688,13.5 3.60157,17.40234c21.59765,25.5 27.89843,65.69922 15.89843,97.79688c-9.30078,24 -32.69922,54.90234 -92.10156,63.60156l-23.09766,3.60156c14.16016,21.36719 15.65235,23.92969 18.60157,27.29688c5.99609,8.10156 10.49609,14.10156 10.49609,30.90234l0,70.19922zm30,-8.69922l0,-61.5c0,-17.10156 -3.60156,-28.5 -8.40234,-36.90234c45.60156,-12.29688 78.0039,-39.30078 92.40234,-78c15.30078,-40.79688 8.40234,-89.39844 -17.10156,-123c4.5039,-20.09766 4.5039,-52.19922 -6.29688,-67.19922c-4.80078,-6.59766 -11.40234,-10.19922 -19.80078,-10.19922c-0.30078,0 -0.30078,0 -0.30078,0c-23.26172,1.25781 -41.57031,12.97266 -61.19922,24.89844c-18,-4.80078 -36.30078,-7.19922 -54.60156,-7.19922c-18.59766,0 -37.19922,2.69922 -53.69531,7.19922c-20.66407,-12.46094 -38.79688,-23.67188 -62.70313,-24.89844c-7.5,0 -14.10156,3.60156 -18.90234,10.19922c-10.79688,15 -10.79688,47.10156 -6.29688,67.19922c-25.5039,33.60156 -32.40234,82.5 -17.10156,123c14.39844,38.69922 46.80078,65.70312 92.40234,78c-3.72265,6.51172 -6.66796,14.91406 -7.82812,26.28515c-9.21094,3.17579 -17.19922,4.21094 -24.62891,2.02735c-7.83593,-2.31641 -13.9414,-7.54688 -19.24609,-16.46875c-11.91406,-20.01563 -32.20703,-36.35547 -55.3125,-34.23047l2.63672,29.88281c10.69922,-0.98047 21.34765,10.33985 26.8789,19.67188c9.125,15.36718 21.41797,25.44531 36.54688,29.91406c11.23047,3.30859 21.49609,3.23047 32.55078,0.87109l0,40.44922c-87.30078,-30.60156 -151,-114 -151,-211.80078c0,-124.19922 101.80078,-227 226,-227s226,102.80078 226,227c0,97.80078 -63.69922,181.19922 -151,211.80078zm0,0"/>
 </g>
</svg>