<svg width="511" height="511.9" xmlns="http://www.w3.org/2000/svg">

 <g>
  <title>background</title>
  <rect fill="none" id="canvas_background" height="602" width="802" y="-1" x="-1"/>
 </g>
 <g>
  <title>Layer 1</title>
  <path fill="#ffaaff" id="svg_1" d="m510.94922,150.5c-1.19922,-27.19922 -5.59766,-45.89844 -11.89844,-62.10156c-6.5,-17.19922 -16.5,-32.59766 -29.60156,-45.39844c-12.80078,-13 -28.30078,-23.10156 -45.30078,-29.5c-16.29688,-6.30078 -34.89844,-10.69922 -62.09766,-11.89844c-27.40234,-1.30078 -36.10156,-1.60156 -105.60156,-1.60156s-78.19922,0.30078 -105.5,1.5c-27.19922,1.19922 -45.89844,5.60156 -62.09766,11.89844c-17.20312,6.5 -32.60156,16.5 -45.40234,29.60156c-13,12.80078 -23.09766,28.30078 -29.5,45.30078c-6.30078,16.30078 -10.69922,34.89844 -11.89844,62.09766c-1.30078,27.40234 -1.60156,36.10156 -1.60156,105.60156s0.30078,78.19922 1.5,105.5c1.19922,27.19922 5.60156,45.89844 11.90234,62.10156c6.5,17.19922 16.59766,32.59766 29.59766,45.39844c12.80078,13 28.30078,23.10156 45.30078,29.5c16.30078,6.30078 34.89844,10.69922 62.10156,11.89844c27.29688,1.20312 36,1.5 105.5,1.5s78.19922,-0.29688 105.5,-1.5c27.19922,-1.19922 45.89844,-5.59766 62.09766,-11.89844c34.40234,-13.30078 61.60156,-40.5 74.90234,-74.89844c6.29688,-16.30078 10.69922,-34.90234 11.89844,-62.10156c1.19922,-27.30078 1.5,-36 1.5,-105.5s-0.10156,-78.19922 -1.30078,-105.5zm-46.09766,209c-1.10156,25 -5.30078,38.5 -8.80078,47.5c-8.60156,22.30078 -26.30078,40 -48.60156,48.60156c-9,3.5 -22.59766,7.69922 -47.5,8.79688c-27,1.20312 -35.09766,1.5 -103.39844,1.5s-76.5,-0.29688 -103.40234,-1.5c-25,-1.09766 -38.5,-5.29688 -47.5,-8.79688c-11.09766,-4.10156 -21.19922,-10.60156 -29.39844,-19.10156c-8.5,-8.30078 -15,-18.30078 -19.10156,-29.39844c-3.5,-9 -7.69922,-22.60156 -8.79688,-47.5c-1.20312,-27 -1.5,-35.10156 -1.5,-103.40234s0.29688,-76.5 1.5,-103.39844c1.09766,-25 5.29688,-38.5 8.79688,-47.5c4.10156,-11.10156 10.60156,-21.19922 19.20312,-29.40234c8.29688,-8.5 18.29688,-15 29.39844,-19.09766c9,-3.5 22.60156,-7.69922 47.5,-8.80078c27,-1.19922 35.10156,-1.5 103.39844,-1.5c68.40234,0 76.5,0.30078 103.40234,1.5c25,1.10156 38.5,5.30078 47.5,8.80078c11.09766,4.09766 21.19922,10.59766 29.39844,19.09766c8.5,8.30078 15,18.30078 19.10156,29.40234c3.5,9 7.69922,22.59766 8.80078,47.5c1.19922,27 1.5,35.09766 1.5,103.39844s-0.30078,76.30078 -1.5,103.30078zm0,0"/>
  <path fill="#ffaaff" id="svg_2" d="m256.44922,124.5c-72.59766,0 -131.5,58.89844 -131.5,131.5s58.90234,131.5 131.5,131.5c72.60156,0 131.5,-58.89844 131.5,-131.5s-58.89844,-131.5 -131.5,-131.5zm0,216.80078c-47.09766,0 -85.30078,-38.19922 -85.30078,-85.30078s38.20312,-85.30078 85.30078,-85.30078c47.10156,0 85.30078,38.19922 85.30078,85.30078s-38.19922,85.30078 -85.30078,85.30078zm0,0"/>
  <path fill="#ffaaff" id="svg_3" d="m423.85156,119.30078c0,16.95313 -13.74609,30.69922 -30.70312,30.69922c-16.95313,0 -30.69922,-13.74609 -30.69922,-30.69922c0,-16.95703 13.74609,-30.69922 30.69922,-30.69922c16.95703,0 30.70312,13.74219 30.70312,30.69922zm0,0"/>
 </g>
</svg>