<svg width="682" height="682.66669" xmlns="http://www.w3.org/2000/svg">

 <g>
  <title>background</title>
  <rect fill="none" id="canvas_background" height="602" width="802" y="-1" x="-1"/>
 </g>
 <g>
  <title>Layer 1</title>
  <path fill="#aaffaa" id="svg_1" fill-rule="evenodd" d="m544.38672,93.00781c-59.875,-59.94531 -139.50391,-92.97265 -224.33594,-93.00781c-174.80469,0 -317.07031,142.26172 -317.14062,317.11328c-0.02344,55.89453 14.57812,110.45703 42.33203,158.55078l-44.99219,164.33594l168.12109,-44.10156c46.32422,25.26953 98.47657,38.58594 151.55079,38.60156l0.13281,0c174.78515,0 317.0664,-142.27344 317.13281,-317.13281c0.03516,-84.74219 -32.92187,-164.41797 -92.80078,-224.35938zm-224.33594,487.9336l-0.10937,0c-47.29688,-0.01953 -93.6836,-12.73047 -134.16016,-36.74219l-9.62109,-5.71484l-99.76563,26.17187l26.62891,-97.26953l-6.26953,-9.97266c-26.38672,-41.96875 -40.32032,-90.47656 -40.29688,-140.28125c0.05469,-145.33203 118.30469,-263.57031 263.69922,-263.57031c70.40625,0.02344 136.58984,27.47656 186.35547,77.30078s77.15625,116.05078 77.13281,186.48438c-0.0625,145.34375 -118.30469,263.59375 -263.59375,263.59375zm144.58594,-197.41797c-7.92188,-3.96875 -46.88281,-23.13281 -54.14844,-25.78125c-7.25781,-2.64453 -12.54687,-3.96094 -17.82422,3.96875c-5.28515,7.92969 -20.46875,25.78125 -25.09375,31.0664c-4.625,5.28907 -9.24219,5.95313 -17.16797,1.98438c-7.92578,-3.96484 -33.45703,-12.33594 -63.72656,-39.33203c-23.55469,-21.01172 -39.45703,-46.96094 -44.08203,-54.89063c-4.61719,-7.9375 -0.03906,-11.8125 3.47656,-16.17187c8.57813,-10.65235 17.16797,-21.82031 19.8086,-27.10547c2.64453,-5.28906 1.32031,-9.91797 -0.66407,-13.88281c-1.97656,-3.96485 -17.82422,-42.96875 -24.42578,-58.83985c-6.4375,-15.44531 -12.96484,-13.35937 -17.83203,-13.60156c-4.61719,-0.23047 -9.90234,-0.27734 -15.1875,-0.27734c-5.28125,0 -13.86719,1.98047 -21.13281,9.91797c-7.26172,7.93359 -27.73047,27.10156 -27.73047,66.10546s28.39453,76.6836 32.35547,81.97266c3.96094,5.28906 55.8789,85.32813 135.36719,119.64844c18.90625,8.17187 33.66406,13.04297 45.17578,16.69531c18.98437,6.03125 36.2539,5.17969 49.91015,3.14063c15.22657,-2.27735 46.87891,-19.17188 53.48829,-37.67969c6.60156,-18.51172 6.60156,-34.375 4.61718,-37.6836c-1.97656,-3.30468 -7.26172,-5.28515 -15.18359,-9.2539zm0,0"/>
 </g>
</svg>